<?xml version="1.0" standalone="no"?>
<svg viewBox="0 0 200 200" xmlns="http://www.w3.org/2000/svg">
  <path fill="#FF0066" d="M31.4,-51.4C43.7,-47.2,58.8,-45,68.1,-36.7C77.4,-28.5,80.9,-14.2,78.7,-1.2C76.6,11.8,68.8,23.5,59.2,31.2C49.6,39,38.2,42.6,28,47.5C17.8,52.4,8.9,58.4,0,58.4C-9,58.5,-18,52.6,-28.2,47.8C-38.4,43,-49.9,39.2,-57.7,31.4C-65.6,23.6,-69.7,11.8,-71.9,-1.3C-74.1,-14.3,-74.3,-28.7,-66.4,-36.4C-58.6,-44.1,-42.6,-45.1,-30.2,-49.3C-17.8,-53.4,-8.9,-60.6,0.3,-61.2C9.5,-61.7,19.1,-55.6,31.4,-51.4Z" transform="translate(100 100)" />
</svg>
